<mxfile host="app.diagrams.net" modified="2021-09-29T09:39:22.290Z" agent="5.0 (Windows NT 10.0; Win64; x64) AppleWebKit/537.36 (KHTML, like Gecko) Chrome/94.0.4606.54 Safari/537.36" etag="8gdUxb6OQqUpTqxUftCG" version="15.3.7" type="github">
  <diagram id="o3_FU0ulzJaRl3kbsqfp" name="Page-1">
    <mxGraphModel dx="2062" dy="1066" grid="1" gridSize="10" guides="1" tooltips="1" connect="1" arrows="1" fold="1" page="1" pageScale="1" pageWidth="827" pageHeight="1169" math="0" shadow="0">
      <root>
        <mxCell id="0" />
        <mxCell id="1" parent="0" />
        <mxCell id="7eFrYa81dyya87V6aaPf-1" value="" style="ellipse;whiteSpace=wrap;html=1;" vertex="1" parent="1">
          <mxGeometry x="260" y="210" width="120" height="80" as="geometry" />
        </mxCell>
      </root>
    </mxGraphModel>
  </diagram>
</mxfile>
